<?xml version="1.0" encoding="UTF-8" standalone="no"?>
<!DOCTYPE svg PUBLIC "-//W3C//DTD SVG 1.1//EN" "http://www.w3.org/Graphics/SVG/1.1/DTD/svg11.dtd">
<!-- Created with Vectornator (http://vectornator.io/) -->
<svg height="100%" stroke-miterlimit="10" style="fill-rule:nonzero;clip-rule:evenodd;stroke-linecap:round;stroke-linejoin:round;" version="1.1" viewBox="0 0 792 1224" width="100%" xml:space="preserve" xmlns="http://www.w3.org/2000/svg" xmlns:vectornator="http://vectornator.io" xmlns:xlink="http://www.w3.org/1999/xlink">
<defs/>
<g id="Layer-1" vectornator:layerName="Layer 1">
<g opacity="1">
<path d="M186.624 298.223C186.912 298.151 186.984 297.935 187.056 297.719C187.488 295.847 188.208 294.047 188.352 292.175C188.496 291.239 188.712 290.519 189.576 290.087C190.44 289.583 190.656 288.863 190.584 287.927C190.296 285.119 190.08 282.311 189.864 279.503C189.648 276.335 189.432 273.167 188.856 270.071C188.352 266.831 187.704 263.591 187.272 260.279C186.552 255.671 185.616 251.063 184.104 246.599C183.096 243.863 181.944 241.199 180.36 238.751C179.928 238.175 179.496 237.887 178.776 238.103C178.272 238.247 177.696 238.319 177.192 238.319C173.88 238.535 170.64 239.039 167.472 239.975C165.816 240.479 165.744 240.551 165.888 242.207C166.032 244.583 166.104 247.031 165.96 249.407C165.816 254.303 165.096 259.127 164.304 263.951C164.016 265.319 163.656 266.255 162.072 266.543C160.704 266.831 160.632 267.119 160.848 268.559C161.064 271.007 161.352 273.455 161.64 275.903C161.712 276.551 161.64 277.199 161.496 277.847C160.488 281.879 159.336 285.839 157.896 289.655C157.608 290.303 157.464 291.023 157.32 291.743C157.248 292.175 157.392 292.463 157.896 292.607C158.688 292.895 159.552 293.255 160.416 293.471C161.064 293.687 161.352 294.047 161.424 294.695C161.712 297.287 162.504 299.735 162.936 302.327C163.008 302.975 163.152 303.623 164.088 304.055C164.376 301.031 165.168 298.223 165.384 295.271C165.888 296.063 165.816 296.999 166.104 297.863C166.392 298.655 166.536 299.447 166.824 300.239C167.112 301.031 166.896 301.967 167.76 302.687C167.976 301.463 167.976 300.383 168.264 299.375C168.984 296.711 169.128 294.047 169.056 291.311C169.056 290.159 169.2 289.079 169.416 287.999C170.064 284.903 170.712 281.879 171.36 278.783C171.504 278.279 171.576 277.703 171.72 277.199C171.864 276.695 172.368 276.695 172.8 276.623C173.304 276.551 173.232 277.055 173.304 277.343C173.736 279.071 174.168 280.727 174.6 282.455C174.744 282.959 174.888 283.535 175.608 283.895C175.752 283.175 175.968 282.527 176.04 281.879C176.112 279.935 176.76 278.135 177.048 276.263C177.192 275.687 177.768 275.327 178.488 275.399C179.136 275.471 178.92 275.975 178.92 276.335C179.136 280.439 179.496 284.615 179.568 288.719C179.64 291.167 179.784 293.543 179.928 295.991C179.928 296.279 179.856 296.783 180.216 296.711C181.08 296.495 181.008 297.071 181.08 297.503C181.512 298.943 181.944 300.455 182.16 301.967C182.232 302.543 182.376 303.191 183.096 303.767C183.168 303.407 183.24 303.191 183.24 302.975C183.312 301.895 183.312 300.743 183.6 299.663C184.032 297.935 184.464 296.207 184.608 294.407C184.608 294.263 184.608 294.119 184.68 293.975C184.752 293.759 184.968 293.543 185.184 293.471C185.544 293.471 185.616 293.759 185.616 294.047C185.832 295.055 186.048 296.063 186.192 297.071C186.264 297.503 186.264 297.935 186.624 298.223ZM176.04 246.455C176.328 247.823 176.616 248.975 176.832 250.199C177.408 254.015 177.768 257.903 178.128 261.719C178.2 263.015 178.2 263.015 176.976 263.159C176.04 263.303 175.104 263.447 174.168 263.519C174.096 262.871 175.752 247.535 176.04 246.455Z" fill="#000000" fill-rule="nonzero" opacity="1" stroke="none"/>
<path d="M216.984 292.247C217.416 292.319 217.56 292.607 217.776 292.823C218.712 293.399 219.072 294.191 218.928 295.271C218.784 296.063 218.856 296.927 219 297.719C219.144 298.151 219.144 298.799 219.72 298.871C220.368 298.871 220.44 298.223 220.512 297.791C220.728 296.927 220.8 295.991 220.944 295.127C221.016 294.695 221.16 294.479 221.592 294.551C222.312 294.623 222.888 294.407 223.32 293.975C225.696 291.527 227.568 288.791 228.504 285.479C228.648 284.831 228.648 284.399 228.288 283.823C226.272 280.943 224.544 277.847 222.96 274.679C222.744 274.175 222.528 273.599 222.024 273.311C221.448 273.599 221.232 274.103 220.872 274.463C220.008 275.399 219.144 276.191 217.992 276.695C217.488 276.911 216.912 277.127 216.336 276.767C214.392 275.615 213.024 273.887 211.872 271.871C213.096 272.303 214.392 272.591 215.616 272.879C217.632 273.311 219.432 272.807 221.088 271.655C222.096 271.007 222.96 270.143 223.608 269.135C224.76 267.335 225.552 265.391 226.056 263.375C227.64 257.255 227.64 251.063 226.272 244.943C225.912 243.071 225.048 241.487 223.824 240.047C222.744 238.895 221.448 238.031 219.792 237.959C217.488 237.815 215.616 238.535 214.176 240.407C213.672 241.055 213.168 241.703 212.736 242.351C210 246.455 207.912 250.919 206.472 255.599C206.256 256.175 206.256 256.751 205.752 257.327C205.536 254.303 205.68 251.423 205.752 248.615C205.824 245.879 206.04 243.143 206.184 240.407C206.184 239.471 206.112 239.327 205.104 239.183C204.6 239.111 204.24 238.895 203.808 238.751C202.728 238.391 201.72 238.031 200.568 237.887C199.488 237.743 198.768 238.175 198.408 239.255C198.192 239.975 198.048 240.695 197.904 241.487C197.04 248.327 196.752 255.167 196.608 262.007C196.536 264.311 196.752 266.615 196.824 268.847C197.04 275.039 197.328 281.159 198.48 287.279C198.768 289.151 199.056 291.095 199.704 292.895C200.064 293.903 200.28 294.911 200.424 295.991C200.64 298.151 201.072 300.311 201.432 302.471C201.504 302.975 201.576 303.623 202.296 303.983C202.728 302.831 202.944 301.679 202.944 300.527C203.016 298.295 203.664 296.135 203.664 293.903C203.664 293.615 203.736 293.183 204.096 293.183C204.6 293.111 204.528 293.615 204.528 293.831C204.672 295.415 205.032 296.855 205.392 298.367C205.464 298.799 205.536 299.303 206.04 299.519C206.328 299.303 206.4 299.015 206.472 298.727C206.832 296.567 207.48 294.551 207.408 292.391C207.408 291.671 207.696 291.383 208.344 291.239C208.848 291.095 209.352 290.951 209.856 290.807C210.864 290.519 210.936 290.447 210.576 289.439C209.28 285.983 208.272 282.455 207.696 278.855C207.552 277.847 207.264 276.911 207.408 275.687C207.624 276.047 207.696 276.191 207.768 276.335C209.136 279.791 210.72 283.103 212.88 286.199C213.168 286.703 213.312 287.279 213.312 287.855C213.24 291.383 214.032 294.767 214.536 298.223C214.608 298.799 214.752 299.519 215.4 300.023C216.408 297.431 216.12 294.695 216.984 292.247ZM217.776 262.727C217.92 263.735 217.344 264.527 216.696 265.319C216.264 265.895 215.688 266.111 215.04 266.039C213.24 265.895 211.584 265.391 210.144 264.311C208.992 263.519 208.992 263.087 209.856 261.935C210.936 260.423 212.448 259.343 214.176 258.695C215.616 258.047 216.552 258.407 217.2 259.847C217.632 260.711 217.704 261.647 217.776 262.727Z" fill="#000000" fill-rule="nonzero" opacity="1" stroke="none"/>
<path d="M249.432 274.175C249.576 274.103 249.648 274.031 249.72 273.959C250.152 272.447 250.944 271.007 251.16 269.423C251.304 268.703 251.592 268.343 252.24 268.343C252.456 268.271 252.744 268.271 252.96 268.271C253.824 267.983 254.76 268.199 255.696 268.127C256.272 268.055 256.56 267.911 256.344 267.263C256.056 266.399 255.912 265.463 255.696 264.527C255.048 261.719 254.184 258.911 253.104 256.247C252.744 255.311 252.384 255.167 251.448 255.383C251.232 255.455 250.944 255.599 250.728 255.743C249.288 256.607 247.848 257.471 246.408 258.407C246.192 258.551 245.976 258.839 245.544 258.623C246.12 255.815 246.624 252.935 247.488 250.199C247.776 249.335 247.848 249.263 248.712 249.695C251.16 250.847 253.536 252.143 255.624 253.943C256.128 254.375 256.416 254.807 256.56 255.527C256.776 256.679 256.992 257.903 256.992 259.055C257.064 259.703 257.064 260.351 257.784 260.711C258.072 258.911 258.36 257.183 258.72 255.527C259.296 252.071 260.232 248.831 261.816 245.735C262.176 245.087 262.464 244.367 262.68 243.647C263.472 241.703 263.4 241.487 261.6 240.479C261.168 240.263 260.664 239.975 260.16 239.831C258.576 239.399 256.92 239.039 255.336 238.823C250.44 238.175 245.616 238.103 240.72 238.247C240.288 238.247 239.856 238.247 239.424 238.319C238.2 238.535 237.984 238.679 237.912 239.975C237.696 242.351 237.552 244.799 237.336 247.175C237.336 247.823 237.624 247.967 238.128 248.039C238.56 248.111 239.064 247.967 239.568 248.255C239.64 248.615 239.424 248.975 239.352 249.263C238.416 252.143 237.696 255.095 237.12 258.119C236.256 262.511 235.536 266.903 235.104 271.367C234.816 275.255 234.528 279.215 234.528 283.103C234.6 285.911 235.032 288.647 235.968 291.239C236.544 292.967 237.408 294.479 238.992 295.559C239.784 296.135 241.008 296.135 241.512 296.927C242.016 297.719 241.944 298.871 242.304 299.735C243.024 301.463 243.6 303.263 243.744 305.135C243.744 305.567 243.888 305.999 244.104 306.647C244.176 306.215 244.248 306.143 244.248 305.999C244.104 303.263 244.896 300.599 245.184 297.863C245.256 296.999 245.472 296.927 246.552 296.927C247.344 296.855 247.416 297.287 247.416 297.935C247.488 298.871 247.632 299.879 247.92 300.815C247.992 301.175 247.992 301.679 248.496 301.751C248.928 301.751 248.928 301.247 249.072 300.887C249.576 299.663 250.08 298.439 250.296 297.071C250.44 296.567 250.584 296.279 251.16 296.207C252.888 295.847 254.472 294.983 256.056 294.119C257.136 293.543 258.216 292.895 259.44 292.247C259.8 294.191 260.088 296.063 260.376 298.007C260.88 297.647 261.024 297.143 261.096 296.711C261.384 295.559 261.456 294.407 261.672 293.255C261.96 291.599 261.888 289.727 263.832 288.863C264.408 288.575 264.264 287.999 264.336 287.567C264.408 283.823 264.12 280.151 263.688 276.479C263.4 274.391 263.04 272.375 262.392 270.431C262.104 269.639 261.816 269.567 261.168 270.071C260.592 270.503 260.016 271.007 259.512 271.655C257.496 274.319 254.976 276.479 252.24 278.495C251.16 279.287 250.008 280.007 248.712 280.439C247.128 280.943 246.048 280.439 245.4 278.927C245.112 278.207 244.968 277.487 244.896 276.695C244.608 274.679 244.392 272.591 244.536 270.575C244.536 270.071 244.536 269.639 245.112 269.495C245.832 269.351 246.624 269.279 247.344 269.207C247.704 269.207 247.704 269.567 247.776 269.783C247.92 270.791 248.424 271.727 248.568 272.735C248.64 273.311 248.856 273.887 249.432 274.175Z" fill="#000000" fill-rule="nonzero" opacity="1" stroke="none"/>
<path d="M300.216 281.231C300.288 280.511 300.288 280.079 300.288 279.647C300.576 275.975 301.08 272.375 301.872 268.775C302.952 263.591 304.392 258.407 306.984 253.727C307.272 253.295 307.488 252.863 307.704 252.431C308.064 251.567 307.992 251.423 307.128 251.063C304.176 249.695 301.008 249.119 297.84 248.399C297.192 248.255 296.688 248.471 296.184 249.047C295.608 249.695 295.248 250.559 294.888 251.351C291.576 258.767 289.632 266.543 289.2 274.607C289.056 277.847 288.912 281.087 289.704 284.255C289.992 285.119 289.992 285.983 290.064 286.847C290.136 289.439 290.136 292.103 290.784 294.623C291.144 296.207 291.504 297.791 291.864 299.447C291.936 299.951 292.08 300.455 292.584 301.103C293.448 298.151 293.52 295.199 294.24 292.247C294.888 292.895 295.824 292.895 296.112 293.687C296.4 294.839 296.904 295.847 297.048 296.999C297.12 297.863 297.12 298.727 297.696 299.519C298.128 298.943 298.056 298.367 298.056 297.791C298.128 296.711 298.416 295.703 298.776 294.623C298.92 294.191 299.136 293.975 299.64 293.903C301.224 293.759 302.376 292.967 303.384 291.743C305.184 289.367 306.768 286.919 307.992 284.183C308.208 283.679 308.352 283.031 308.928 282.527C309 282.887 309.072 283.175 309.144 283.391C309.72 286.055 310.584 288.575 311.952 290.879C312.24 291.383 312.24 291.887 312.24 292.463C312.384 295.631 312.96 298.727 313.824 301.823C313.968 302.327 314.04 302.903 314.76 303.335C315.624 300.311 316.128 297.359 315.984 294.335C317.712 294.479 317.712 294.479 317.856 295.919C318.144 297.503 318.576 299.087 319.368 300.671C320.232 298.655 320.952 296.783 321.096 294.767C321.168 294.047 321.456 293.687 322.032 293.327C324.048 292.391 325.56 290.951 326.784 289.079C326.928 288.935 327 288.575 327.432 288.647C328.224 290.879 327.72 293.327 328.152 295.775C328.368 295.271 328.368 294.839 328.296 294.407C328.296 292.031 328.728 289.727 329.16 287.423C329.304 286.631 329.448 285.911 329.52 285.119C330.024 280.871 329.952 276.551 330.096 272.303C330.528 264.887 329.232 257.687 326.856 250.703C326.64 250.055 326.352 249.479 325.92 248.903C325.56 248.471 325.2 248.399 324.624 248.615C321.672 249.767 318.936 251.279 316.128 252.791C315.696 253.007 315.624 253.367 315.768 253.799C315.84 254.015 315.984 254.303 316.056 254.519C317.568 256.895 318.288 259.559 319.008 262.223C320.376 267.407 321.168 272.663 320.808 277.991C320.664 279.431 320.592 280.943 319.944 282.311C319.512 282.023 319.44 281.591 319.296 281.231C318.432 278.711 317.856 276.119 317.568 273.527C317.28 270.791 317.208 267.983 317.064 265.247C317.064 264.599 316.848 264.167 316.2 263.879C312.96 262.655 309.504 262.511 306.048 262.295C305.616 262.223 305.4 262.511 305.4 262.871C305.328 263.159 305.328 263.447 305.328 263.663C304.752 268.559 303.816 273.311 302.376 277.991C302.016 279.143 301.512 280.295 300.216 281.231Z" fill="#000000" fill-rule="nonzero" opacity="1" stroke="none"/>
<path d="M360.888 267.407C361.248 267.047 361.248 266.687 361.248 266.327C361.248 265.535 361.464 264.743 361.608 263.951C361.968 262.295 362.4 260.639 362.544 258.983C362.688 256.607 363.336 254.519 364.488 252.503C365.064 251.567 364.92 251.351 363.912 250.775C363.264 250.415 362.616 250.055 361.824 249.911C360.24 249.551 358.584 249.191 356.928 249.047C352.104 248.471 347.208 248.471 342.384 248.543C341.808 248.543 341.304 248.615 340.8 248.687C339.648 248.903 339.648 248.903 339.504 250.055C339.288 251.567 339.216 253.079 339.072 254.591C338.928 256.463 339 256.463 340.872 256.607C340.944 256.607 341.016 256.607 341.088 256.679C341.232 256.895 341.088 257.111 341.016 257.327C339.936 260.207 339.072 263.159 338.352 266.183C336.912 272.231 336.192 278.495 336.12 284.759C336.12 286.775 336.48 288.719 337.128 290.663C338.064 293.471 339.864 295.343 342.816 295.991C343.32 296.063 343.608 296.279 343.68 296.927C343.896 299.087 344.688 301.247 344.688 303.479C344.688 303.623 344.688 303.767 344.904 303.767C345.048 303.767 345.12 303.623 345.12 303.479C345.408 301.247 346.488 299.231 346.776 296.999C346.848 296.639 346.92 296.351 347.352 296.279C347.856 296.207 348 296.567 348.072 296.927C348.36 297.863 348.72 298.799 348.648 299.807C348.648 300.167 348.648 300.527 348.864 300.887C349.296 300.671 349.296 300.383 349.296 300.095C349.368 298.799 350.088 297.647 350.592 296.495C350.736 296.063 351.024 295.847 351.456 295.847C353.976 295.631 356.208 294.551 358.44 293.615C359.088 293.327 359.88 292.679 360.384 292.823C361.104 293.111 360.816 294.191 361.032 294.911C361.68 296.999 361.968 299.231 361.896 301.463C361.896 301.751 361.968 302.039 361.968 302.327C362.4 302.111 362.328 301.823 362.328 301.607C362.4 300.527 362.688 299.519 362.832 298.511C363.336 296.063 364.128 293.615 364.2 291.023C364.2 290.519 364.416 290.159 364.848 290.015C365.784 289.655 365.928 288.935 365.928 288.071C365.928 285.263 365.712 282.455 365.28 279.719C365.064 277.991 364.632 276.335 363.984 274.823C363.696 274.247 363.408 274.031 362.832 274.391C362.184 274.823 361.536 275.255 361.032 275.759C358.872 278.135 356.208 279.863 353.472 281.447C352.536 282.023 351.6 282.455 350.52 282.815C348.432 283.463 346.992 282.599 346.56 280.439C346.344 279.287 346.2 278.135 346.128 276.983C346.056 276.263 346.128 275.471 346.128 274.751C346.128 273.887 346.776 273.959 347.352 273.815C347.928 273.743 348.144 274.031 348.288 274.535C348.504 275.687 348.864 276.767 349.08 277.919C349.224 278.855 349.08 279.791 349.44 280.655C349.872 279.647 349.656 278.567 350.088 277.559C350.448 276.551 350.736 275.471 351.24 274.463C351.672 275.255 351.6 276.119 352.176 276.983C352.896 276.407 353.04 275.615 353.256 274.823C353.904 272.879 353.904 272.879 355.992 272.879C356.28 272.879 356.568 272.879 356.928 272.879C357.288 272.879 357.72 272.879 358.008 272.519C357.576 271.079 357.216 269.567 356.712 268.127C356.208 266.471 355.56 264.887 354.768 263.303C354.336 262.439 354.048 262.295 353.112 262.511C352.824 262.511 352.608 262.655 352.32 262.727C350.88 263.447 349.44 264.167 348 264.887C347.784 265.031 347.568 265.319 347.136 265.175C347.64 262.871 348.144 260.639 349.008 258.479C349.368 257.543 349.368 257.543 350.376 257.903C352.896 258.839 355.272 259.919 357.432 261.431C357.864 261.791 358.368 262.079 358.728 262.367C359.304 262.151 359.376 261.575 359.952 261.575C360.456 263.447 360.528 265.391 360.888 267.407Z" fill="#000000" fill-rule="nonzero" opacity="1" stroke="none"/>
<path d="M409.152 267.335C409.224 267.047 409.368 266.759 409.368 266.471C409.368 265.391 409.656 264.383 409.8 263.303C410.16 261.503 410.808 259.775 410.736 257.903C410.664 256.535 411.312 255.743 412.248 255.023C412.752 254.591 413.04 254.591 413.256 255.239C413.76 256.319 414.192 257.471 414.48 258.623C415.128 260.855 415.848 263.087 416.136 265.391C416.28 266.255 416.496 266.399 417.432 266.255C418.872 265.967 420.312 265.751 421.752 265.463C422.904 265.175 422.976 265.103 423.048 263.951C423.048 262.439 423.048 260.999 422.976 259.487C422.904 256.607 422.328 253.727 421.464 250.991C421.176 250.127 420.744 249.335 420.24 248.615C419.52 247.535 418.656 247.103 417.288 247.247C413.112 247.679 409.008 248.543 405.12 250.199C402.672 251.279 400.296 252.575 398.424 254.591C395.544 257.831 393.456 261.575 391.944 265.607C391.08 267.839 391.008 270.143 390.792 272.447C390.504 275.255 390.576 278.063 391.224 280.799C391.44 281.735 391.584 282.599 391.584 283.463C391.584 285.335 391.656 287.135 392.016 288.935C392.376 290.807 392.808 292.607 392.88 294.479C392.88 294.983 393.024 295.487 393.096 295.991C393.672 293.615 393.816 291.167 394.68 288.863C394.824 288.935 394.968 289.007 394.968 289.079C397.416 292.319 400.152 295.127 404.544 295.415C404.976 295.487 405.048 295.775 405.12 296.063C405.192 298.079 405.696 300.023 405.984 302.039C406.128 303.047 406.056 304.055 406.344 305.063C406.56 302.111 407.568 299.375 408.216 296.351C409.224 298.151 409.44 299.951 409.368 302.039C409.872 301.247 409.872 300.599 409.944 300.023C409.944 299.519 410.016 299.015 410.232 298.583C410.736 297.791 411.096 296.927 411.312 295.991C411.384 295.415 411.672 295.271 412.248 295.271C413.256 295.271 414.264 295.271 415.272 295.271C417.504 295.271 417 295.631 418.224 293.615C419.088 292.247 419.88 290.807 420.528 289.151C421.536 291.311 421.248 293.543 421.824 295.631C421.968 295.271 422.04 294.911 422.04 294.623C422.04 292.391 422.472 290.231 422.904 288.143C423.048 287.567 423.192 287.063 423.192 286.559C423.192 282.743 423.84 278.999 425.064 275.399C425.064 275.255 425.136 275.111 425.136 274.967C425.208 274.679 425.352 274.391 425.064 274.103C423.696 273.815 422.328 273.599 420.888 273.239C419.952 272.951 419.664 273.167 419.16 274.031C418.728 274.823 418.296 275.543 417.72 276.263C415.272 279.863 412.104 282.743 408.864 285.551C408.072 286.199 408 286.199 407.424 285.407C406.056 283.319 405.12 281.015 404.616 278.639C403.968 275.543 404.256 272.375 404.472 269.279C404.472 269.207 404.544 269.135 404.688 269.063C405.192 271.439 405.192 273.887 405.84 276.263C406.416 271.727 407.352 267.335 408.072 262.871C408.72 264.311 408.576 265.895 409.152 267.335Z" fill="#000000" fill-rule="nonzero" opacity="1" stroke="none"/>
<path d="M442.248 302.399C442.536 302.111 442.608 301.751 442.68 301.319C442.896 299.375 443.184 297.431 443.4 295.487C443.472 295.055 443.472 294.695 444.048 294.695C444.552 294.695 444.768 294.911 444.84 295.415C445.056 296.423 445.488 297.359 445.992 298.223C446.064 298.439 446.136 298.727 446.424 298.727C446.784 298.727 446.784 298.367 446.856 298.151C447.216 297.287 447.648 296.423 447.792 295.487C447.864 294.767 448.224 294.479 448.944 294.407C451.104 294.119 453.12 293.399 455.136 292.607C456.144 292.175 456.144 292.175 456.216 293.183C456.36 295.271 457.008 297.215 457.368 299.303C457.44 299.735 457.584 300.167 457.872 300.599C458.016 300.383 458.16 300.311 458.16 300.239C458.304 299.951 458.376 299.735 458.448 299.447C459.168 296.351 459.816 293.255 459.816 290.087C459.744 289.223 459.888 288.503 460.32 287.783C460.824 286.919 461.04 286.055 461.184 285.119C461.616 282.527 461.472 279.935 461.256 277.343C460.968 274.751 460.608 272.231 460.392 269.639C459.96 265.895 459.528 262.151 458.952 258.479C458.808 257.543 458.664 256.463 458.088 255.527C456.072 257.111 453.84 258.119 451.248 258.839C452.472 256.823 453.984 255.239 455.064 253.295C454.776 253.151 454.56 253.007 454.344 253.007C450.744 252.143 447.648 250.415 444.696 248.183C443.544 247.319 443.184 247.247 442.032 248.327C440.952 249.335 439.8 250.343 439.008 251.639C437.136 254.807 435.336 257.975 434.112 261.503C432.384 266.687 431.304 272.015 431.232 277.487C431.16 284.039 433.392 289.439 439.008 293.183C439.44 293.471 439.656 293.759 439.656 294.263C439.8 296.783 440.88 299.087 441.528 301.463C441.672 301.823 441.816 302.255 442.248 302.399ZM447.432 264.887C448.584 266.687 448.872 268.559 449.232 270.359C449.664 273.023 449.808 275.759 449.664 278.495C449.52 280.367 449.088 282.167 448.296 283.895C447.936 284.759 447.432 285.479 446.64 285.983C445.848 286.559 445.488 286.559 444.912 285.695C443.832 284.111 443.328 282.455 443.184 280.583C442.896 276.551 443.832 272.879 445.272 269.207C445.848 267.767 446.496 266.327 447.432 264.887Z" fill="#000000" fill-rule="nonzero" opacity="1" stroke="none"/>
<path d="M478.44 302.399C478.728 302.111 478.8 301.751 478.872 301.319C479.088 299.375 479.376 297.431 479.592 295.487C479.664 295.055 479.664 294.695 480.24 294.695C480.744 294.695 480.96 294.911 481.032 295.415C481.248 296.423 481.68 297.359 482.184 298.223C482.256 298.439 482.328 298.727 482.616 298.727C482.976 298.727 482.976 298.367 483.048 298.151C483.408 297.287 483.84 296.423 483.984 295.487C484.056 294.767 484.416 294.479 485.136 294.407C487.296 294.119 489.312 293.399 491.328 292.607C492.336 292.175 492.336 292.175 492.408 293.183C492.552 295.271 493.2 297.215 493.56 299.303C493.632 299.735 493.776 300.167 494.064 300.599C494.208 300.383 494.352 300.311 494.352 300.239C494.496 299.951 494.568 299.735 494.64 299.447C495.36 296.351 496.008 293.255 496.008 290.087C495.936 289.223 496.08 288.503 496.512 287.783C497.016 286.919 497.232 286.055 497.376 285.119C497.808 282.527 497.664 279.935 497.448 277.343C497.16 274.751 496.8 272.231 496.584 269.639C496.152 265.895 495.72 262.151 495.144 258.479C495 257.543 494.856 256.463 494.28 255.527C492.264 257.111 490.032 258.119 487.44 258.839C488.664 256.823 490.176 255.239 491.256 253.295C490.968 253.151 490.752 253.007 490.536 253.007C486.936 252.143 483.84 250.415 480.888 248.183C479.736 247.319 479.376 247.247 478.224 248.327C477.144 249.335 475.992 250.343 475.2 251.639C473.328 254.807 471.528 257.975 470.304 261.503C468.576 266.687 467.496 272.015 467.424 277.487C467.352 284.039 469.584 289.439 475.2 293.183C475.632 293.471 475.848 293.759 475.848 294.263C475.992 296.783 477.072 299.087 477.72 301.463C477.864 301.823 478.008 302.255 478.44 302.399ZM483.624 264.887C484.776 266.687 485.064 268.559 485.424 270.359C485.856 273.023 486 275.759 485.856 278.495C485.712 280.367 485.28 282.167 484.488 283.895C484.128 284.759 483.624 285.479 482.832 285.983C482.04 286.559 481.68 286.559 481.104 285.695C480.024 284.111 479.52 282.455 479.376 280.583C479.088 276.551 480.024 272.879 481.464 269.207C482.04 267.767 482.688 266.327 483.624 264.887Z" fill="#000000" fill-rule="nonzero" opacity="1" stroke="none"/>
<path d="M515.64 280.655C515.424 280.151 515.712 279.791 515.784 279.431C516.792 275.183 517.656 270.935 518.304 266.687C518.952 262.295 519.24 257.831 519.816 253.367C519.96 252.143 520.104 250.991 520.032 249.767C520.032 248.831 519.672 248.471 518.736 248.543C518.16 248.615 517.584 248.687 517.008 248.687C513.048 249.191 509.376 250.559 505.992 252.719C505.272 253.151 505.2 253.511 505.416 254.303C505.488 254.591 505.704 254.951 505.848 255.239C506.568 256.679 506.928 258.191 507.216 259.703C507.792 263.159 507.864 266.615 507.792 270.143C507.72 272.231 507.72 274.319 507.288 276.407C506.568 279.791 505.344 282.959 503.976 286.127C503.4 287.495 503.472 288.575 504.12 289.799C504.984 291.311 505.632 292.967 505.776 294.767C505.92 295.559 506.136 296.279 506.352 297.071C506.784 298.871 507.504 300.527 507.648 302.399C507.648 302.687 507.648 303.047 508.08 303.191C508.296 302.111 508.44 301.103 508.584 300.095C508.728 299.087 508.944 298.079 509.232 297.071C509.448 296.135 509.16 295.127 509.808 294.263C510.096 295.991 510.6 297.719 511.536 299.231C511.68 299.159 511.824 299.087 511.824 299.015C511.896 298.943 511.968 298.799 512.04 298.727C512.832 297.215 513.192 295.631 513.264 293.903C513.264 293.327 513.48 292.967 514.128 292.823C515.784 292.535 517.368 292.319 519.024 292.319C519.888 292.247 520.608 292.535 521.4 292.751C521.76 292.823 521.904 293.039 521.976 293.399C522.336 295.055 523.128 296.567 523.272 298.295C523.344 298.727 523.416 299.159 523.92 299.591C524.064 298.655 524.28 297.935 524.352 297.215C524.496 296.351 524.856 295.559 525.144 294.767C525.288 294.479 525.432 294.335 525.72 294.407C526.44 294.695 527.16 294.767 527.808 294.983C528.456 295.199 528.24 296.279 528.528 296.999C528.672 297.575 528.744 298.295 528.888 298.943C528.96 299.519 529.032 300.095 529.32 300.671C529.752 300.455 529.752 300.023 529.824 299.735C530.04 298.223 530.544 296.783 530.832 295.271C531.336 292.535 531.336 289.799 531.552 286.991C531.624 286.127 531.84 285.335 532.272 284.615C532.992 283.319 533.64 282.023 534.432 280.727C534.72 280.295 534.648 279.935 534.216 279.647C531.336 277.631 528.312 276.191 524.712 276.695C522.336 277.055 520.104 277.991 518.016 279.215C517.224 279.719 516.504 280.295 515.64 280.655Z" fill="#000000" fill-rule="nonzero" opacity="1" stroke="none"/>
<path d="M578.016 276.191C578.52 275.831 578.592 275.399 578.664 275.039C578.952 273.455 579.096 271.799 580.032 270.431C580.248 270.143 580.248 269.639 580.392 269.279C580.608 268.415 580.536 267.551 580.68 266.687C580.752 266.399 580.896 266.039 581.328 266.111C581.616 266.183 581.616 266.543 581.616 266.831C581.76 268.343 581.832 269.855 581.904 271.367C581.976 273.239 581.904 275.183 581.544 277.055C581.4 277.631 581.184 278.207 580.752 278.639C579.744 279.647 578.52 280.367 577.008 280.511C574.344 280.655 571.752 280.583 569.16 279.863C568.152 279.647 568.152 279.575 567.864 280.511C566.856 283.535 566.136 286.559 565.416 289.583C565.128 290.447 565.416 291.239 566.208 291.599C567.648 292.175 567.936 293.255 567.936 294.551C567.936 294.983 568.08 295.487 568.152 295.991C568.512 297.503 569.016 299.015 569.16 300.527C569.16 300.959 569.16 301.463 569.736 301.679C570.456 300.383 570.24 298.871 570.816 297.503C571.392 296.207 571.392 294.695 571.824 293.327C572.112 294.335 572.184 295.343 572.4 296.351C572.688 297.287 572.616 298.439 573.768 299.015C574.128 298.655 574.272 298.295 574.416 297.863C574.776 296.783 575.136 295.703 575.208 294.623C575.208 293.975 575.424 293.615 576.144 293.687C577.512 293.759 578.952 293.687 580.32 293.543C580.824 293.471 581.04 293.687 581.184 294.191C581.256 294.623 581.472 295.055 581.616 295.559C581.76 295.847 581.832 296.207 582.192 296.207C582.552 296.279 582.624 295.847 582.696 295.559C582.984 294.839 583.2 294.119 583.416 293.399C583.56 292.967 583.704 292.679 584.136 292.535C584.64 292.391 585.072 291.959 585.648 291.887C586.224 295.127 587.304 298.223 587.088 301.463C587.52 301.535 587.592 301.247 587.664 301.031C588.024 300.167 588.024 299.231 588.096 298.295C588.096 297.575 588.024 296.783 588.312 296.063C589.104 293.903 589.248 291.671 589.392 289.439C589.464 288.935 589.608 288.431 589.968 287.999C592.272 284.687 593.352 280.943 593.496 276.911C593.568 274.031 593.424 271.223 593.208 268.343C592.776 262.799 591.696 257.399 590.112 252.071C589.824 251.063 589.392 250.055 588.888 249.119C588.312 248.039 588.24 247.967 587.16 248.471C585.144 249.335 583.2 250.271 581.184 251.135C580.464 251.423 580.176 251.927 580.104 252.647C579.312 257.327 577.512 261.503 574.416 265.175C574.2 265.391 573.984 265.607 573.768 265.823C573.192 266.255 572.76 266.111 572.544 265.463C572.4 264.887 572.328 264.311 572.328 263.735C572.328 261.719 572.472 259.775 572.688 257.831C572.976 255.599 573.552 253.439 574.056 251.279C574.344 250.055 574.2 249.911 572.976 249.623C571.752 249.407 570.456 249.191 569.16 248.975C567 248.615 564.768 248.399 562.536 248.399C561.168 248.327 560.664 248.831 560.52 250.127C559.872 253.871 559.656 257.615 559.656 261.359C559.584 263.807 559.152 266.255 559.44 268.703C559.584 270.143 559.656 271.655 559.656 273.095C559.728 274.895 559.944 276.695 560.16 278.423C560.448 280.583 561.024 282.599 561.096 284.759C561.168 285.551 561.24 286.343 561.96 287.279C562.464 284.183 562.68 281.303 563.256 278.423C564.192 278.927 565.056 279.215 566.064 279.215C567.288 279.143 568.44 278.783 569.52 278.207C572.184 276.695 574.488 274.895 576.504 272.591C576.792 272.303 576.936 271.871 577.512 271.799C577.944 273.239 577.8 274.679 578.016 276.191Z" fill="#000000" fill-rule="nonzero" opacity="1" stroke="none"/>
<path d="M624.216 267.407C624.576 267.047 624.576 266.687 624.576 266.327C624.576 265.535 624.792 264.743 624.936 263.951C625.296 262.295 625.728 260.639 625.872 258.983C626.016 256.607 626.664 254.519 627.816 252.503C628.392 251.567 628.248 251.351 627.24 250.775C626.592 250.415 625.944 250.055 625.152 249.911C623.568 249.551 621.912 249.191 620.256 249.047C615.432 248.471 610.536 248.471 605.712 248.543C605.136 248.543 604.632 248.615 604.128 248.687C602.976 248.903 602.976 248.903 602.832 250.055C602.616 251.567 602.544 253.079 602.4 254.591C602.256 256.463 602.328 256.463 604.2 256.607C604.272 256.607 604.344 256.607 604.416 256.679C604.56 256.895 604.416 257.111 604.344 257.327C603.264 260.207 602.4 263.159 601.68 266.183C600.24 272.231 599.52 278.495 599.448 284.759C599.448 286.775 599.808 288.719 600.456 290.663C601.392 293.471 603.192 295.343 606.144 295.991C606.648 296.063 606.936 296.279 607.008 296.927C607.224 299.087 608.016 301.247 608.016 303.479C608.016 303.623 608.016 303.767 608.232 303.767C608.376 303.767 608.448 303.623 608.448 303.479C608.736 301.247 609.816 299.231 610.104 296.999C610.176 296.639 610.248 296.351 610.68 296.279C611.184 296.207 611.328 296.567 611.4 296.927C611.688 297.863 612.048 298.799 611.976 299.807C611.976 300.167 611.976 300.527 612.192 300.887C612.624 300.671 612.624 300.383 612.624 300.095C612.696 298.799 613.416 297.647 613.92 296.495C614.064 296.063 614.352 295.847 614.784 295.847C617.304 295.631 619.536 294.551 621.768 293.615C622.416 293.327 623.208 292.679 623.712 292.823C624.432 293.111 624.144 294.191 624.36 294.911C625.008 296.999 625.296 299.231 625.224 301.463C625.224 301.751 625.296 302.039 625.296 302.327C625.728 302.111 625.656 301.823 625.656 301.607C625.728 300.527 626.016 299.519 626.16 298.511C626.664 296.063 627.456 293.615 627.528 291.023C627.528 290.519 627.744 290.159 628.176 290.015C629.112 289.655 629.256 288.935 629.256 288.071C629.256 285.263 629.04 282.455 628.608 279.719C628.392 277.991 627.96 276.335 627.312 274.823C627.024 274.247 626.736 274.031 626.16 274.391C625.512 274.823 624.864 275.255 624.36 275.759C622.2 278.135 619.536 279.863 616.8 281.447C615.864 282.023 614.928 282.455 613.848 282.815C611.76 283.463 610.32 282.599 609.888 280.439C609.672 279.287 609.528 278.135 609.456 276.983C609.384 276.263 609.456 275.471 609.456 274.751C609.456 273.887 610.104 273.959 610.68 273.815C611.256 273.743 611.472 274.031 611.616 274.535C611.832 275.687 612.192 276.767 612.408 277.919C612.552 278.855 612.408 279.791 612.768 280.655C613.2 279.647 612.984 278.567 613.416 277.559C613.776 276.551 614.064 275.471 614.568 274.463C615 275.255 614.928 276.119 615.504 276.983C616.224 276.407 616.368 275.615 616.584 274.823C617.232 272.879 617.232 272.879 619.32 272.879C619.608 272.879 619.896 272.879 620.256 272.879C620.616 272.879 621.048 272.879 621.336 272.519C620.904 271.079 620.544 269.567 620.04 268.127C619.536 266.471 618.888 264.887 618.096 263.303C617.664 262.439 617.376 262.295 616.44 262.511C616.152 262.511 615.936 262.655 615.648 262.727C614.208 263.447 612.768 264.167 611.328 264.887C611.112 265.031 610.896 265.319 610.464 265.175C610.968 262.871 611.472 260.639 612.336 258.479C612.696 257.543 612.696 257.543 613.704 257.903C616.224 258.839 618.6 259.919 620.76 261.431C621.192 261.791 621.696 262.079 622.056 262.367C622.632 262.151 622.704 261.575 623.28 261.575C623.784 263.447 623.856 265.391 624.216 267.407Z" fill="#000000" fill-rule="nonzero" opacity="1" stroke="none"/>
<path d="M666.312 274.967C666.96 273.815 667.248 272.735 667.536 271.655C667.608 271.007 667.824 270.719 668.544 270.863C669.192 270.935 669.408 270.647 669.408 269.999C669.48 268.991 669.48 267.983 669.552 266.975C669.912 261.575 670.992 256.319 672.432 251.135C672.648 250.415 672.792 249.623 672.936 248.831C673.08 248.327 672.864 248.039 672.288 248.183C670.416 248.687 668.472 248.903 666.6 249.119C660.624 249.767 654.648 249.767 648.672 249.695C647.88 249.695 647.088 249.623 646.224 249.479C642.984 249.047 639.672 248.903 636.432 248.183C635.424 247.967 634.992 248.471 635.208 249.479C635.28 249.911 635.424 250.343 635.568 250.775C637.656 257.039 639.024 263.447 639.456 269.999C639.528 271.079 639.6 271.079 640.68 270.935C641.04 270.935 641.472 270.791 641.544 271.367C641.832 272.735 642.336 274.031 642.336 275.471C642.336 276.695 642.336 277.919 642.84 279.071C643.272 278.855 643.2 278.495 643.2 278.207C643.632 275.831 643.848 273.455 644.856 271.223C645.072 270.863 645 270.359 645.504 270.359C646.152 270.359 646.224 269.927 646.296 269.495C646.368 268.919 646.368 268.343 646.44 267.695C646.512 265.823 646.44 263.951 646.368 262.079C646.368 261.791 646.224 261.287 646.728 261.287C647.952 261.215 649.104 260.855 650.4 261.071C649.752 265.319 649.104 269.423 648.672 273.599C648.168 278.639 647.592 283.679 647.736 288.719C647.736 290.087 647.664 291.383 647.952 292.751C648.24 294.119 648.24 294.119 649.608 293.615C649.68 293.615 649.824 293.543 649.968 293.471C650.4 293.255 650.688 293.399 650.832 293.903C651.336 295.991 652.272 297.863 652.272 300.023C652.344 300.599 652.488 301.175 652.56 301.751C652.632 301.967 652.56 302.327 652.992 302.327C653.064 302.111 653.136 301.895 653.136 301.679C653.568 299.159 653.424 296.639 654.216 294.191C654.36 293.687 654.36 293.183 654.432 292.679C654.432 292.535 654.432 292.319 654.504 292.175C654.576 291.959 654.72 291.815 655.008 291.815C655.224 291.815 655.296 292.031 655.296 292.247C655.368 292.751 655.368 293.255 655.512 293.831C655.728 295.415 656.16 296.927 656.664 298.583C656.808 298.295 656.88 298.223 656.952 298.079C657.744 295.991 658.536 293.831 658.68 291.527C658.752 290.735 659.04 290.447 659.76 290.231C660.48 290.087 661.128 289.871 661.776 289.655C663 289.295 663.072 289.007 662.424 287.999C662.208 287.567 661.92 287.135 661.776 286.703C661.128 284.759 660.624 282.743 660.408 280.727C659.688 275.615 659.544 270.575 659.328 265.463C659.256 263.951 659.256 262.439 659.184 260.927C659.184 260.567 659.112 260.063 659.472 259.991C660.552 259.703 661.56 259.271 662.712 259.343C662.712 259.703 662.64 260.063 662.64 260.351C662.28 263.159 661.92 265.967 662.136 268.775C662.208 270.359 662.28 270.431 663.936 270.503C664.656 270.503 665.016 270.719 665.16 271.511C665.304 272.663 665.664 273.743 666.312 274.967Z" fill="#000000" fill-rule="nonzero" opacity="1" stroke="none"/>
<path d="M705.384 236.159C703.656 235.511 701.856 235.223 700.128 235.223C695.952 235.367 691.992 236.303 688.392 238.607C686.52 239.831 684.792 241.271 683.208 242.783C681.408 244.511 680.184 246.671 679.104 248.831C678.816 249.407 678.96 249.695 679.392 249.983C679.968 250.415 680.544 250.847 681.12 251.279C681.84 251.783 682.2 252.503 682.344 253.367C682.488 254.663 682.776 255.959 683.136 257.183C683.208 257.471 683.208 257.831 683.712 257.831C683.928 256.895 684.144 255.887 684.432 254.807C684.936 255.167 684.936 255.527 685.008 255.887C685.08 256.679 685.152 257.399 685.224 258.191C685.584 260.207 685.872 262.223 686.232 264.239C686.304 264.599 686.232 265.103 686.736 265.103C687.168 265.103 687.096 264.599 687.24 264.239C687.24 264.167 687.24 264.095 687.312 264.023C687.672 262.007 688.104 260.063 688.176 258.047C688.248 257.615 688.248 257.183 688.536 256.751C690.912 254.015 693.648 251.639 697.104 250.271C697.608 250.127 698.112 249.983 698.688 249.911C699.264 249.911 699.48 250.199 699.336 250.775C699.12 251.351 698.832 251.927 698.544 252.503C696.96 255.311 695.376 258.119 693.792 260.999C692.208 263.879 690.768 266.759 689.184 269.639C688.68 270.431 688.752 271.079 689.328 271.799C690.192 272.879 690.984 274.031 691.704 275.183C692.064 275.687 692.424 275.903 693 275.831C695.016 275.543 697.032 275.399 699.048 275.255C700.416 275.111 701.856 274.967 703.296 274.895C703.944 274.823 704.16 274.535 704.232 273.959C704.592 271.943 704.952 269.855 705.312 267.767C705.456 266.831 705.24 266.543 704.304 266.615C703.728 266.615 703.224 266.759 702.72 266.831C702.288 266.903 701.928 267.119 701.496 266.975C701.568 266.543 701.784 266.327 702 265.967C703.584 263.519 705.168 261.071 706.752 258.551C708.12 256.391 709.488 254.159 710.568 251.783C711.288 250.343 711.792 248.831 712.008 247.247C712.584 241.991 710.352 238.031 705.384 236.159ZM698.616 276.695C696.384 275.975 694.296 276.551 692.496 278.135C690.48 279.863 689.688 282.167 689.544 284.759C689.544 285.767 689.76 286.775 690.12 287.783C690.912 289.727 692.136 291.311 694.152 292.031C695.16 292.391 695.52 292.823 695.592 293.831C695.664 294.407 695.808 295.055 695.952 295.631C696.024 295.919 696.096 296.135 696.24 296.423C696.24 296.567 696.312 296.783 696.528 296.783C696.816 296.783 696.96 296.639 697.032 296.423C697.176 296.063 697.248 295.703 697.32 295.415C697.608 294.263 697.896 293.111 698.112 292.031C698.184 291.527 698.4 291.239 698.76 290.951C702.072 288.719 703.296 285.551 702.72 281.663C702.36 279.215 700.992 277.415 698.616 276.695Z" fill="#000000" fill-rule="nonzero" opacity="1" stroke="none"/>
</g>
</g>
</svg>
